<?xml version="1.0" standalone="no"?>
<!DOCTYPE svg PUBLIC "-//W3C//DTD SVG 20010904//EN"
 "http://www.w3.org/TR/2001/REC-SVG-20010904/DTD/svg10.dtd">
<svg version="1.0" xmlns="http://www.w3.org/2000/svg"
 width="160.000000pt" height="160.000000pt" viewBox="0 0 160.000000 160.000000"
 preserveAspectRatio="xMidYMid meet">
<metadata>
</metadata>
<g transform="translate(0.000000,160.000000) scale(0.100000,-0.100000)"
fill="#000000" stroke="none">
<path d="M0 800 l0 -790 670 0 671 0 48 25 c69 34 139 109 175 185 l31 65 3
480 c2 350 0 492 -9 525 -31 116 -110 212 -219 264 l-65 31 -652 3 -653 3 0
-791z m810 -10 c3 0 37 63 75 140 l70 141 42 -31 c113 -83 154 -249 92 -372
-29 -59 -84 -114 -144 -146 -43 -23 -62 -27 -135 -27 -73 0 -92 4 -136 27 -71
37 -137 113 -159 183 -37 118 3 251 98 327 l51 40 70 -141 c39 -78 73 -141 76
-141z"/>
</g>
</svg>
